<svg xmlns="http://www.w3.org/2000/svg" xmlns:xlink="http://www.w3.org/1999/xlink" width="126" zoomAndPan="magnify" viewBox="0 0 94.5 39.749999" height="53" preserveAspectRatio="xMidYMid meet" version="1.0"><defs><filter x="0%" y="0%" width="100%" height="100%" id="a147dd19c4"><feColorMatrix values="0 0 0 0 1 0 0 0 0 1 0 0 0 0 1 0 0 0 1 0" color-interpolation-filters="sRGB"/></filter><g/><clipPath id="5ea7bb12f8"><path d="M 0.046875 5 L 93.957031 5 L 93.957031 35 L 0.046875 35 Z M 0.046875 5 " clip-rule="nonzero"/></clipPath><clipPath id="e84204a8c4"><path d="M 0.046875 1.59375 L 26.257812 1.59375 L 26.257812 27.800781 L 0.046875 27.800781 Z M 0.046875 1.59375 " clip-rule="nonzero"/></clipPath><mask id="196b967761"><g filter="url(#a147dd19c4)"><rect x="-20.79" width="136.08" fill="#000000" y="-13.745" height="57.239999" fill-opacity="0.1"/></g></mask><clipPath id="5c9dc7271c"><path d="M 0.238281 18 L 24.804688 18 L 24.804688 21.859375 L 0.238281 21.859375 Z M 0.238281 18 " clip-rule="nonzero"/></clipPath><clipPath id="58dd9a81a3"><path d="M 0.238281 9 L 24.804688 9 L 24.804688 13 L 0.238281 13 Z M 0.238281 9 " clip-rule="nonzero"/></clipPath><clipPath id="fbe8a45e89"><path d="M 0.238281 0.632812 L 24.804688 0.632812 L 24.804688 5 L 0.238281 5 Z M 0.238281 0.632812 " clip-rule="nonzero"/></clipPath><clipPath id="a3c5387a8d"><rect x="0" width="25" y="0" height="22"/></clipPath><mask id="e520815def"><g filter="url(#a147dd19c4)"><rect x="-20.79" width="136.08" fill="#000000" y="-13.745" height="57.239999" fill-opacity="0.1"/></g></mask><clipPath id="f32150b193"><path d="M 0.367188 0.300781 L 5 0.300781 L 5 22 L 0.367188 22 Z M 0.367188 0.300781 " clip-rule="nonzero"/></clipPath><clipPath id="83487e81d1"><rect x="0" width="6" y="0" height="23"/></clipPath><clipPath id="0f12a602c5"><path d="M 27 0.246094 L 93.957031 0.246094 L 93.957031 29.105469 L 27 29.105469 Z M 27 0.246094 " clip-rule="nonzero"/></clipPath><clipPath id="388335dd9b"><path d="M 56 1 L 66.957031 1 L 66.957031 14 L 56 14 Z M 56 1 " clip-rule="nonzero"/></clipPath><clipPath id="58e2c898bd"><rect x="0" width="67" y="0" height="30"/></clipPath><clipPath id="fe1a648836"><rect x="0" width="94" y="0" height="30"/></clipPath></defs><g clip-path="url(#5ea7bb12f8)"><g transform="matrix(1, 0, 0, 1, 0, 5)"><g clip-path="url(#fe1a648836)"><g clip-path="url(#e84204a8c4)"><path fill="#6f4e37" d="M 4.585938 2.71875 L 25.773438 2.71875 C 26.082031 2.71875 26.332031 2.46875 26.332031 2.160156 C 26.332031 1.851562 26.082031 1.601562 25.773438 1.601562 L 4.5 1.601562 C 2.089844 1.601562 0.132812 3.558594 0.132812 5.96875 C 0.132812 8.378906 2.089844 10.335938 4.5 10.335938 C 2.089844 10.335938 0.132812 12.289062 0.132812 14.699219 C 0.132812 17.113281 2.089844 19.066406 4.5 19.066406 C 2.035156 19.066406 0.046875 21.109375 0.136719 23.59375 C 0.21875 25.957031 2.238281 27.800781 4.605469 27.800781 L 25.773438 27.800781 C 26.082031 27.800781 26.332031 27.550781 26.332031 27.242188 C 26.332031 26.9375 26.082031 26.6875 25.773438 26.6875 L 4.585938 26.6875 C 2.769531 26.6875 1.21875 25.199219 1.25 23.378906 C 1.277344 21.613281 2.726562 20.183594 4.5 20.183594 L 25.773438 20.183594 C 26.082031 20.183594 26.332031 19.933594 26.332031 19.625 L 26.332031 18.511719 C 26.332031 18.203125 26.082031 17.957031 25.773438 17.957031 L 4.585938 17.957031 C 2.765625 17.957031 1.21875 16.46875 1.246094 14.648438 C 1.277344 12.882812 2.726562 11.453125 4.5 11.453125 L 25.773438 11.453125 C 26.082031 11.453125 26.332031 11.203125 26.332031 10.894531 L 26.332031 9.78125 C 26.332031 9.472656 26.082031 9.222656 25.773438 9.222656 L 4.5 9.222656 C 2.722656 9.222656 1.277344 7.792969 1.246094 6.027344 C 1.21875 4.203125 2.765625 2.71875 4.585938 2.71875 Z M 4.585938 2.71875 " fill-opacity="1" fill-rule="nonzero"/></g><path fill="#faf3e4" d="M 4.5 9.222656 C 2.707031 9.222656 1.246094 7.761719 1.246094 5.96875 C 1.246094 4.175781 2.707031 2.71875 4.5 2.71875 L 25.574219 2.71875 L 25.574219 9.222656 Z M 25.574219 17.953125 L 25.574219 11.449219 L 4.5 11.449219 C 2.707031 11.449219 1.246094 12.90625 1.246094 14.699219 C 1.246094 16.492188 2.707031 17.953125 4.5 17.953125 Z M 25.574219 26.6875 L 25.574219 20.183594 L 4.5 20.183594 C 2.707031 20.183594 1.246094 21.640625 1.246094 23.433594 C 1.246094 25.226562 2.707031 26.6875 4.5 26.6875 Z M 25.574219 26.6875 " fill-opacity="1" fill-rule="nonzero"/><g mask="url(#196b967761)"><g transform="matrix(1, 0, 0, 1, 1, 2)"><g clip-path="url(#a3c5387a8d)"><g clip-path="url(#5c9dc7271c)"><path fill="#000000" d="M 0.246094 21.433594 C 0.246094 21.519531 0.253906 21.605469 0.261719 21.691406 C 0.390625 20.015625 1.792969 18.695312 3.5 18.695312 L 24.574219 18.695312 L 24.574219 18.179688 L 3.5 18.179688 C 1.707031 18.183594 0.246094 19.640625 0.246094 21.433594 Z M 0.246094 21.433594 " fill-opacity="1" fill-rule="nonzero"/></g><g clip-path="url(#58dd9a81a3)"><path fill="#000000" d="M 0.246094 12.703125 C 0.246094 12.789062 0.253906 12.875 0.261719 12.957031 C 0.390625 11.285156 1.792969 9.960938 3.5 9.960938 L 24.574219 9.960938 L 24.574219 9.449219 L 3.5 9.449219 C 1.707031 9.449219 0.246094 10.90625 0.246094 12.703125 Z M 0.246094 12.703125 " fill-opacity="1" fill-rule="nonzero"/></g><g clip-path="url(#fbe8a45e89)"><path fill="#000000" d="M 3.5 0.71875 C 1.707031 0.71875 0.246094 2.175781 0.246094 3.96875 C 0.246094 4.054688 0.253906 4.140625 0.261719 4.226562 C 0.390625 2.550781 1.792969 1.230469 3.5 1.230469 L 24.574219 1.230469 L 24.574219 0.714844 L 3.5 0.714844 Z M 3.5 0.71875 " fill-opacity="1" fill-rule="nonzero"/></g></g></g></g><path fill="#e6b187" d="M 25.574219 4.648438 L 4.007812 4.648438 L 4.007812 4.539062 L 25.574219 4.539062 Z M 25.574219 5.914062 L 4.007812 5.914062 L 4.007812 6.023438 L 25.574219 6.023438 Z M 25.574219 7.289062 L 4.007812 7.289062 L 4.007812 7.398438 L 25.574219 7.398438 Z M 25.574219 13.269531 L 4.007812 13.269531 L 4.007812 13.382812 L 25.574219 13.382812 Z M 25.574219 14.644531 L 4.007812 14.644531 L 4.007812 14.757812 L 25.574219 14.757812 Z M 25.574219 16.019531 L 4.007812 16.019531 L 4.007812 16.132812 L 25.574219 16.132812 Z M 25.574219 22.003906 L 4.007812 22.003906 L 4.007812 22.113281 L 25.574219 22.113281 Z M 25.574219 23.378906 L 4.007812 23.378906 L 4.007812 23.488281 L 25.574219 23.488281 Z M 25.574219 24.753906 L 4.007812 24.753906 L 4.007812 24.863281 L 25.574219 24.863281 Z M 25.574219 24.753906 " fill-opacity="1" fill-rule="nonzero"/><g mask="url(#e520815def)"><g transform="matrix(1, 0, 0, 1, 19, 4)"><g clip-path="url(#83487e81d1)"><g clip-path="url(#f32150b193)"><path fill="#000000" d="M 4.953125 21.886719 L 2.808594 20.03125 L 0.664062 21.886719 L 0.664062 0.539062 L 4.953125 0.539062 Z M 4.953125 21.886719 " fill-opacity="1" fill-rule="nonzero"/></g></g></g></g><path fill="#6f4e37" d="M 23.476562 25.34375 L 21.332031 23.488281 L 19.1875 25.34375 L 19.1875 4.539062 L 23.476562 4.539062 Z M 23.476562 25.34375 " fill-opacity="1" fill-rule="nonzero"/><g clip-path="url(#0f12a602c5)"><g transform="matrix(1, 0, 0, 1, 27, 0)"><g clip-path="url(#58e2c898bd)"><g fill="#6f4e37" fill-opacity="1"><g transform="translate(0.61134, 13.673888)"><g><path d="M 0.984375 0 C 0.992188 -0.25 1 -0.570312 1 -0.96875 C 1.007812 -1.375 1.015625 -1.8125 1.015625 -2.28125 C 1.023438 -2.75 1.03125 -3.21875 1.03125 -3.6875 C 1.039062 -4.15625 1.046875 -4.59375 1.046875 -5 C 1.054688 -5.40625 1.0625 -5.734375 1.0625 -5.984375 C 1.0625 -6.378906 1.054688 -6.832031 1.046875 -7.34375 C 1.046875 -7.863281 1.039062 -8.398438 1.03125 -8.953125 C 1.019531 -9.515625 1.007812 -10.054688 1 -10.578125 C 1 -11.109375 0.992188 -11.578125 0.984375 -11.984375 L 6.4375 -11.984375 C 7.488281 -11.984375 8.378906 -11.910156 9.109375 -11.765625 C 9.847656 -11.617188 10.414062 -11.332031 10.8125 -10.90625 C 11.207031 -10.488281 11.40625 -9.878906 11.40625 -9.078125 C 11.40625 -8.492188 11.285156 -8.003906 11.046875 -7.609375 C 10.804688 -7.210938 10.394531 -6.90625 9.8125 -6.6875 C 9.238281 -6.476562 8.429688 -6.34375 7.390625 -6.28125 L 7.390625 -6.0625 C 8.472656 -6.007812 9.320312 -5.878906 9.9375 -5.671875 C 10.5625 -5.472656 11.007812 -5.175781 11.28125 -4.78125 C 11.550781 -4.394531 11.6875 -3.890625 11.6875 -3.265625 C 11.6875 -2.441406 11.503906 -1.789062 11.140625 -1.3125 C 10.773438 -0.832031 10.226562 -0.492188 9.5 -0.296875 C 8.769531 -0.0976562 7.832031 0 6.6875 0 Z M 4.03125 -6.96875 L 6.09375 -6.96875 C 6.832031 -6.96875 7.375 -7.078125 7.71875 -7.296875 C 8.070312 -7.515625 8.25 -7.898438 8.25 -8.453125 C 8.25 -9.054688 8.0625 -9.46875 7.6875 -9.6875 C 7.320312 -9.914062 6.789062 -10.03125 6.09375 -10.03125 L 4.03125 -10.03125 Z M 4.03125 -2.1875 L 6.203125 -2.1875 C 7.035156 -2.1875 7.640625 -2.304688 8.015625 -2.546875 C 8.398438 -2.785156 8.59375 -3.207031 8.59375 -3.8125 C 8.59375 -4.382812 8.382812 -4.78125 7.96875 -5 C 7.550781 -5.226562 6.925781 -5.34375 6.09375 -5.34375 L 4.03125 -5.34375 Z M 4.03125 -2.1875 "/></g></g></g><g fill="#6f4e37" fill-opacity="1"><g transform="translate(12.838111, 13.673888)"><g><path d="M 5.765625 0.1875 C 4.117188 0.1875 2.859375 -0.257812 1.984375 -1.15625 C 1.109375 -2.050781 0.671875 -3.351562 0.671875 -5.0625 C 0.671875 -6.769531 1.109375 -8.082031 1.984375 -9 C 2.859375 -9.914062 4.117188 -10.375 5.765625 -10.375 C 7.453125 -10.375 8.738281 -9.914062 9.625 -9 C 10.519531 -8.09375 10.96875 -6.785156 10.96875 -5.078125 C 10.96875 -3.367188 10.519531 -2.0625 9.625 -1.15625 C 8.738281 -0.257812 7.453125 0.1875 5.765625 0.1875 Z M 6.03125 -1.984375 C 6.28125 -1.984375 6.519531 -2.019531 6.75 -2.09375 C 6.988281 -2.164062 7.191406 -2.273438 7.359375 -2.421875 C 7.535156 -2.765625 7.675781 -3.15625 7.78125 -3.59375 C 7.882812 -4.039062 7.9375 -4.539062 7.9375 -5.09375 C 7.9375 -6.070312 7.734375 -6.835938 7.328125 -7.390625 C 6.929688 -7.941406 6.351562 -8.21875 5.59375 -8.21875 C 4.976562 -8.21875 4.484375 -8 4.109375 -7.5625 C 3.984375 -7.21875 3.882812 -6.84375 3.8125 -6.4375 C 3.75 -6.03125 3.71875 -5.582031 3.71875 -5.09375 C 3.71875 -4.101562 3.910156 -3.335938 4.296875 -2.796875 C 4.691406 -2.253906 5.269531 -1.984375 6.03125 -1.984375 Z M 6.03125 -1.984375 "/></g></g></g><g fill="#6f4e37" fill-opacity="1"><g transform="translate(24.468451, 13.673888)"><g><path d="M 5.765625 0.1875 C 4.117188 0.1875 2.859375 -0.257812 1.984375 -1.15625 C 1.109375 -2.050781 0.671875 -3.351562 0.671875 -5.0625 C 0.671875 -6.769531 1.109375 -8.082031 1.984375 -9 C 2.859375 -9.914062 4.117188 -10.375 5.765625 -10.375 C 7.453125 -10.375 8.738281 -9.914062 9.625 -9 C 10.519531 -8.09375 10.96875 -6.785156 10.96875 -5.078125 C 10.96875 -3.367188 10.519531 -2.0625 9.625 -1.15625 C 8.738281 -0.257812 7.453125 0.1875 5.765625 0.1875 Z M 6.03125 -1.984375 C 6.28125 -1.984375 6.519531 -2.019531 6.75 -2.09375 C 6.988281 -2.164062 7.191406 -2.273438 7.359375 -2.421875 C 7.535156 -2.765625 7.675781 -3.15625 7.78125 -3.59375 C 7.882812 -4.039062 7.9375 -4.539062 7.9375 -5.09375 C 7.9375 -6.070312 7.734375 -6.835938 7.328125 -7.390625 C 6.929688 -7.941406 6.351562 -8.21875 5.59375 -8.21875 C 4.976562 -8.21875 4.484375 -8 4.109375 -7.5625 C 3.984375 -7.21875 3.882812 -6.84375 3.8125 -6.4375 C 3.75 -6.03125 3.71875 -5.582031 3.71875 -5.09375 C 3.71875 -4.101562 3.910156 -3.335938 4.296875 -2.796875 C 4.691406 -2.253906 5.269531 -1.984375 6.03125 -1.984375 Z M 6.03125 -1.984375 "/></g></g></g><g fill="#6f4e37" fill-opacity="1"><g transform="translate(36.098791, 13.673888)"><g><path d="M 0 0.171875 L 9.890625 0.171875 L 9.890625 1.875 L 0 1.875 Z M 0 0.171875 "/></g></g></g><g fill="#6f4e37" fill-opacity="1"><g transform="translate(45.986934, 13.673888)"><g><path d="M 0 0.171875 L 9.890625 0.171875 L 9.890625 1.875 L 0 1.875 Z M 0 0.171875 "/></g></g></g><g clip-path="url(#388335dd9b)"><g fill="#6f4e37" fill-opacity="1"><g transform="translate(55.875077, 13.673888)"><g><path d="M 1.0625 0 C 1.070312 -0.9375 1.078125 -1.898438 1.078125 -2.890625 C 1.085938 -3.890625 1.09375 -4.929688 1.09375 -6.015625 C 1.09375 -7.085938 1.085938 -8.078125 1.078125 -8.984375 C 1.078125 -9.898438 1.070312 -10.835938 1.0625 -11.796875 L 4.21875 -12.078125 C 4.207031 -11.578125 4.195312 -11.117188 4.1875 -10.703125 C 4.175781 -10.296875 4.160156 -9.878906 4.140625 -9.453125 C 4.128906 -9.023438 4.117188 -8.535156 4.109375 -7.984375 C 4.097656 -7.441406 4.085938 -6.78125 4.078125 -6 L 4.828125 -6 L 7.640625 -10.171875 L 10.828125 -10.171875 C 10.398438 -9.535156 9.941406 -8.875 9.453125 -8.1875 C 8.972656 -7.507812 8.488281 -6.832031 8 -6.15625 C 7.832031 -5.914062 7.601562 -5.726562 7.3125 -5.59375 C 7.019531 -5.457031 6.585938 -5.378906 6.015625 -5.359375 L 6.015625 -5.1875 C 6.597656 -5.175781 7.023438 -5.09375 7.296875 -4.9375 C 7.578125 -4.789062 7.804688 -4.585938 7.984375 -4.328125 C 8.523438 -3.585938 9.050781 -2.863281 9.5625 -2.15625 C 10.082031 -1.457031 10.609375 -0.738281 11.140625 0 L 7.796875 0 L 4.84375 -4.46875 L 4.078125 -4.46875 C 4.085938 -4.1875 4.09375 -3.867188 4.09375 -3.515625 C 4.101562 -3.160156 4.117188 -2.703125 4.140625 -2.140625 C 4.160156 -1.585938 4.1875 -0.875 4.21875 0 Z M 1.0625 0 "/></g></g></g></g><g fill="#6f4e37" fill-opacity="1"><g transform="translate(0.61134, 26.734554)"><g><path d="M 0.96875 0 C 0.988281 -0.925781 1 -1.828125 1 -2.703125 C 1.007812 -3.578125 1.015625 -4.441406 1.015625 -5.296875 C 1.015625 -6.003906 1.007812 -6.738281 1 -7.5 C 1 -8.257812 0.992188 -9.003906 0.984375 -9.734375 C 0.984375 -10.472656 0.976562 -11.160156 0.96875 -11.796875 L 4.0625 -12.078125 C 4.0625 -11.734375 4.054688 -11.289062 4.046875 -10.75 C 4.046875 -10.207031 4.039062 -9.617188 4.03125 -8.984375 C 4.03125 -8.359375 4.03125 -7.722656 4.03125 -7.078125 C 4.03125 -6.441406 4.03125 -5.847656 4.03125 -5.296875 C 4.03125 -4.691406 4.03125 -4.066406 4.03125 -3.421875 C 4.039062 -2.785156 4.046875 -2.171875 4.046875 -1.578125 C 4.054688 -0.984375 4.0625 -0.457031 4.0625 0 Z M 0.96875 0 "/></g></g></g><g fill="#6f4e37" fill-opacity="1"><g transform="translate(5.649585, 26.734554)"><g><path d="M 2.625 -10.625 C 1.925781 -10.625 1.4375 -10.722656 1.15625 -10.921875 C 0.882812 -11.117188 0.75 -11.414062 0.75 -11.8125 C 0.75 -12.21875 0.882812 -12.519531 1.15625 -12.71875 C 1.4375 -12.914062 1.925781 -13.015625 2.625 -13.015625 C 3.320312 -13.015625 3.804688 -12.914062 4.078125 -12.71875 C 4.347656 -12.519531 4.484375 -12.21875 4.484375 -11.8125 C 4.484375 -11.414062 4.347656 -11.117188 4.078125 -10.921875 C 3.804688 -10.722656 3.320312 -10.625 2.625 -10.625 Z M 1.0625 0 C 1.082031 -0.800781 1.097656 -1.566406 1.109375 -2.296875 C 1.117188 -3.035156 1.125 -3.765625 1.125 -4.484375 C 1.125 -5.410156 1.117188 -6.335938 1.109375 -7.265625 C 1.097656 -8.191406 1.082031 -9.050781 1.0625 -9.84375 C 1.25 -9.832031 1.472656 -9.8125 1.734375 -9.78125 C 2.003906 -9.757812 2.300781 -9.75 2.625 -9.75 C 2.96875 -9.75 3.265625 -9.757812 3.515625 -9.78125 C 3.765625 -9.8125 3.984375 -9.832031 4.171875 -9.84375 C 4.171875 -9.457031 4.164062 -8.960938 4.15625 -8.359375 C 4.15625 -7.765625 4.148438 -7.128906 4.140625 -6.453125 C 4.140625 -5.773438 4.140625 -5.117188 4.140625 -4.484375 C 4.140625 -3.972656 4.140625 -3.445312 4.140625 -2.90625 C 4.148438 -2.363281 4.15625 -1.835938 4.15625 -1.328125 C 4.164062 -0.828125 4.171875 -0.382812 4.171875 0 Z M 1.0625 0 "/></g></g></g><g fill="#6f4e37" fill-opacity="1"><g transform="translate(10.907567, 26.734554)"><g><path d="M 7.59375 0.1875 C 6.96875 0.1875 6.421875 0.078125 5.953125 -0.140625 C 5.484375 -0.367188 5.09375 -0.664062 4.78125 -1.03125 C 4.476562 -1.40625 4.253906 -1.804688 4.109375 -2.234375 L 3.921875 -2.234375 L 3.703125 0 L 1.0625 0 C 1.082031 -0.820312 1.09375 -1.566406 1.09375 -2.234375 C 1.101562 -2.898438 1.109375 -3.539062 1.109375 -4.15625 C 1.117188 -4.769531 1.125 -5.410156 1.125 -6.078125 C 1.125 -7.078125 1.117188 -8.050781 1.109375 -9 C 1.097656 -9.945312 1.082031 -10.878906 1.0625 -11.796875 L 4.171875 -12.078125 L 4.15625 -10.046875 C 4.15625 -9.765625 4.140625 -9.519531 4.109375 -9.3125 C 4.085938 -9.113281 4.0625 -8.910156 4.03125 -8.703125 C 4 -8.503906 3.960938 -8.269531 3.921875 -8 L 4.140625 -8 C 4.359375 -8.570312 4.664062 -9.03125 5.0625 -9.375 C 5.457031 -9.71875 5.882812 -9.96875 6.34375 -10.125 C 6.8125 -10.28125 7.265625 -10.359375 7.703125 -10.359375 C 8.578125 -10.359375 9.269531 -10.140625 9.78125 -9.703125 C 10.289062 -9.273438 10.660156 -8.664062 10.890625 -7.875 C 11.117188 -7.082031 11.234375 -6.15625 11.234375 -5.09375 C 11.234375 -3.4375 10.929688 -2.140625 10.328125 -1.203125 C 9.722656 -0.273438 8.8125 0.1875 7.59375 0.1875 Z M 6.28125 -2 C 6.8125 -2 7.253906 -2.144531 7.609375 -2.4375 C 7.796875 -2.78125 7.941406 -3.171875 8.046875 -3.609375 C 8.148438 -4.054688 8.203125 -4.539062 8.203125 -5.0625 C 8.203125 -5.375 8.171875 -5.695312 8.109375 -6.03125 C 8.054688 -6.375 7.960938 -6.691406 7.828125 -6.984375 C 7.691406 -7.273438 7.515625 -7.507812 7.296875 -7.6875 C 7.078125 -7.875 6.8125 -7.96875 6.5 -7.96875 C 5.988281 -7.96875 5.53125 -7.816406 5.125 -7.515625 C 4.71875 -7.210938 4.394531 -6.820312 4.15625 -6.34375 C 4.144531 -6.09375 4.132812 -5.863281 4.125 -5.65625 C 4.113281 -5.445312 4.109375 -5.160156 4.109375 -4.796875 C 4.109375 -4.128906 4.226562 -3.59375 4.46875 -3.1875 C 4.71875 -2.78125 5.007812 -2.476562 5.34375 -2.28125 C 5.675781 -2.09375 5.988281 -2 6.28125 -2 Z M 6.28125 -2 "/></g></g></g><g fill="#6f4e37" fill-opacity="1"><g transform="translate(22.789034, 26.734554)"><g><path d="M 7.53125 -10.359375 C 8.195312 -10.359375 8.71875 -10.191406 9.09375 -9.859375 C 9.476562 -9.523438 9.757812 -9.007812 9.9375 -8.3125 C 10.125 -7.625 10.25 -6.742188 10.3125 -5.671875 L 7.296875 -5.34375 C 7.296875 -6.1875 7.203125 -6.820312 7.015625 -7.25 C 6.835938 -7.675781 6.519531 -7.890625 6.0625 -7.890625 C 5.726562 -7.890625 5.394531 -7.753906 5.0625 -7.484375 C 4.726562 -7.222656 4.429688 -6.890625 4.171875 -6.484375 L 4.1875 -6.453125 C 4.175781 -6.128906 4.164062 -5.878906 4.15625 -5.703125 C 4.144531 -5.535156 4.132812 -5.394531 4.125 -5.28125 C 4.125 -5.175781 4.125 -5.050781 4.125 -4.90625 C 4.125 -4.007812 4.125 -3.160156 4.125 -2.359375 C 4.132812 -1.566406 4.15625 -0.78125 4.1875 0 L 1.0625 0 C 1.09375 -0.789062 1.109375 -1.609375 1.109375 -2.453125 C 1.117188 -3.304688 1.125 -4.179688 1.125 -5.078125 C 1.125 -5.941406 1.117188 -6.804688 1.109375 -7.671875 C 1.109375 -8.535156 1.097656 -9.363281 1.078125 -10.15625 L 4.1875 -10.15625 L 3.875 -8 L 4.0625 -7.984375 C 4.394531 -8.773438 4.878906 -9.367188 5.515625 -9.765625 C 6.160156 -10.160156 6.832031 -10.359375 7.53125 -10.359375 Z M 7.53125 -10.359375 "/></g></g></g><g fill="#6f4e37" fill-opacity="1"><g transform="translate(33.195127, 26.734554)"><g><path d="M 3.75 0.21875 C 3.144531 0.21875 2.609375 0.113281 2.140625 -0.09375 C 1.679688 -0.3125 1.320312 -0.617188 1.0625 -1.015625 C 0.800781 -1.410156 0.671875 -1.867188 0.671875 -2.390625 C 0.671875 -3.347656 1.070312 -4.085938 1.875 -4.609375 C 2.6875 -5.128906 3.820312 -5.390625 5.28125 -5.390625 C 5.59375 -5.390625 5.921875 -5.378906 6.265625 -5.359375 C 6.617188 -5.347656 7.003906 -5.332031 7.421875 -5.3125 L 7.421875 -5.546875 C 7.421875 -6.015625 7.367188 -6.441406 7.265625 -6.828125 C 7.160156 -7.222656 6.957031 -7.539062 6.65625 -7.78125 C 6.363281 -8.019531 5.914062 -8.140625 5.3125 -8.140625 C 4.925781 -8.078125 4.597656 -7.929688 4.328125 -7.703125 C 4.066406 -7.265625 3.890625 -6.660156 3.796875 -5.890625 L 0.875 -6.3125 C 1.03125 -7.675781 1.535156 -8.695312 2.390625 -9.375 C 3.253906 -10.050781 4.398438 -10.390625 5.828125 -10.390625 C 6.941406 -10.390625 7.835938 -10.203125 8.515625 -9.828125 C 9.191406 -9.460938 9.675781 -8.925781 9.96875 -8.21875 C 10.269531 -7.507812 10.421875 -6.648438 10.421875 -5.640625 C 10.421875 -4.992188 10.421875 -4.445312 10.421875 -4 C 10.429688 -3.550781 10.4375 -3.085938 10.4375 -2.609375 C 10.445312 -2.066406 10.453125 -1.582031 10.453125 -1.15625 C 10.453125 -0.726562 10.453125 -0.34375 10.453125 0 L 7.390625 0 L 7.625 -2.40625 L 7.421875 -2.40625 C 7.253906 -1.957031 7.007812 -1.53125 6.6875 -1.125 C 6.375 -0.71875 5.976562 -0.390625 5.5 -0.140625 C 5.019531 0.0976562 4.4375 0.21875 3.75 0.21875 Z M 4.84375 -2.046875 C 5.1875 -2.046875 5.503906 -2.113281 5.796875 -2.25 C 6.085938 -2.382812 6.34375 -2.546875 6.5625 -2.734375 C 6.789062 -2.921875 6.976562 -3.101562 7.125 -3.28125 C 7.28125 -3.46875 7.382812 -3.609375 7.4375 -3.703125 L 7.4375 -4.1875 C 7.289062 -4.195312 7.101562 -4.203125 6.875 -4.203125 C 6.644531 -4.210938 6.457031 -4.21875 6.3125 -4.21875 C 5.914062 -4.21875 5.503906 -4.191406 5.078125 -4.140625 C 4.660156 -4.085938 4.3125 -3.976562 4.03125 -3.8125 C 3.757812 -3.644531 3.625 -3.378906 3.625 -3.015625 C 3.625 -2.660156 3.734375 -2.410156 3.953125 -2.265625 C 4.179688 -2.117188 4.476562 -2.046875 4.84375 -2.046875 Z M 4.84375 -2.046875 "/></g></g></g><g fill="#6f4e37" fill-opacity="1"><g transform="translate(44.558645, 26.734554)"><g><path d="M 7.53125 -10.359375 C 8.195312 -10.359375 8.71875 -10.191406 9.09375 -9.859375 C 9.476562 -9.523438 9.757812 -9.007812 9.9375 -8.3125 C 10.125 -7.625 10.25 -6.742188 10.3125 -5.671875 L 7.296875 -5.34375 C 7.296875 -6.1875 7.203125 -6.820312 7.015625 -7.25 C 6.835938 -7.675781 6.519531 -7.890625 6.0625 -7.890625 C 5.726562 -7.890625 5.394531 -7.753906 5.0625 -7.484375 C 4.726562 -7.222656 4.429688 -6.890625 4.171875 -6.484375 L 4.1875 -6.453125 C 4.175781 -6.128906 4.164062 -5.878906 4.15625 -5.703125 C 4.144531 -5.535156 4.132812 -5.394531 4.125 -5.28125 C 4.125 -5.175781 4.125 -5.050781 4.125 -4.90625 C 4.125 -4.007812 4.125 -3.160156 4.125 -2.359375 C 4.132812 -1.566406 4.15625 -0.78125 4.1875 0 L 1.0625 0 C 1.09375 -0.789062 1.109375 -1.609375 1.109375 -2.453125 C 1.117188 -3.304688 1.125 -4.179688 1.125 -5.078125 C 1.125 -5.941406 1.117188 -6.804688 1.109375 -7.671875 C 1.109375 -8.535156 1.097656 -9.363281 1.078125 -10.15625 L 4.1875 -10.15625 L 3.875 -8 L 4.0625 -7.984375 C 4.394531 -8.773438 4.878906 -9.367188 5.515625 -9.765625 C 6.160156 -10.160156 6.832031 -10.359375 7.53125 -10.359375 Z M 7.53125 -10.359375 "/></g></g></g><g fill="#6f4e37" fill-opacity="1"><g transform="translate(54.964738, 26.734554)"><g><path d="M 3.96875 2.109375 C 3.71875 2.109375 3.414062 2.097656 3.0625 2.078125 C 2.707031 2.066406 2.359375 2.046875 2.015625 2.015625 C 1.679688 1.984375 1.410156 1.945312 1.203125 1.90625 L 1.46875 -0.421875 L 4.953125 -0.421875 C 5.035156 -0.722656 5.113281 -1.023438 5.1875 -1.328125 C 5.269531 -1.628906 5.328125 -1.832031 5.359375 -1.9375 L 5.140625 -1.9375 C 4.984375 -1.78125 4.742188 -1.664062 4.421875 -1.59375 C 4.097656 -1.519531 3.75 -1.484375 3.375 -1.484375 L 2.4375 -1.484375 C 2.300781 -2.015625 2.128906 -2.640625 1.921875 -3.359375 C 1.710938 -4.085938 1.488281 -4.859375 1.25 -5.671875 C 1.019531 -6.484375 0.796875 -7.28125 0.578125 -8.0625 C 0.367188 -8.84375 0.1875 -9.539062 0.03125 -10.15625 L 3.203125 -10.15625 C 3.328125 -9.625 3.46875 -9.035156 3.625 -8.390625 C 3.789062 -7.753906 3.960938 -7.101562 4.140625 -6.4375 C 4.316406 -5.769531 4.488281 -5.125 4.65625 -4.5 C 4.820312 -3.875 4.96875 -3.316406 5.09375 -2.828125 L 5.3125 -2.828125 C 5.425781 -3.316406 5.554688 -3.867188 5.703125 -4.484375 C 5.847656 -5.109375 6 -5.75 6.15625 -6.40625 C 6.320312 -7.070312 6.476562 -7.726562 6.625 -8.375 C 6.78125 -9.019531 6.921875 -9.613281 7.046875 -10.15625 L 10.25 -10.15625 C 10.039062 -9.226562 9.820312 -8.316406 9.59375 -7.421875 C 9.375 -6.535156 9.132812 -5.609375 8.875 -4.640625 C 8.625 -3.671875 8.351562 -2.609375 8.0625 -1.453125 C 7.84375 -0.523438 7.582031 0.191406 7.28125 0.703125 C 6.976562 1.222656 6.566406 1.585938 6.046875 1.796875 C 5.535156 2.003906 4.84375 2.109375 3.96875 2.109375 Z M 3.96875 2.109375 "/></g></g></g></g></g></g></g></g></g></svg>